Coordinates
version=1
nRows=13
nColumns=22
inDegrees=yes

Units are S.I. units (second, meters, Newtons, ...)
If the header above contains a line with 'inDegrees', this indicates whether rotational values are in degrees (yes) or radians (no).

endheader
time	pelvis_tilt	pelvis_list	pelvis_rotation	pelvis_tx	pelvis_ty	pelvis_tz	hip_flexion_r	hip_adduction_r	hip_rotation_r	knee_angle_r	ankle_angle_r	subtalar_angle_r	hip_flexion_l	hip_adduction_l	hip_rotation_l	knee_angle_l	ankle_angle_l	subtalar_angle_l	lumbar_extension	lumbar_bending	lumbar_rotation
      3.19000000	      3.20653307	     -5.57243524	      3.08670128	     -0.22259959	      1.01879813	     -0.24925896	     -2.30331013	     10.37624831	      1.07920463	    -10.95486404	      9.56330398	     -5.07987748	     19.95968941	     -7.82642323	      0.35840695	    -37.84451925	      9.97645453	      5.19261668	    -13.69996139	      6.54004100	      8.89654563
      3.20000000	      3.10910516	     -5.55015608	      3.15845064	     -0.21759021	      1.01823856	     -0.24965033	     -2.56943633	     10.34810738	      1.07634685	    -10.86033019	      9.81875541	     -5.07506170	     20.34162207	     -7.68066098	      0.09236774	    -36.00610520	      9.67325821	      5.30266873	    -13.69923360	      6.52036366	      8.87431493
      3.21000000	      3.06593726	     -5.50487342	      3.20271573	     -0.21253268	      1.01775038	     -0.25000638	     -2.87346849	     10.29566859	      1.02425269	    -10.81489509	     10.14256414	     -5.05528546	     20.60942433	     -7.53002040	     -0.26824232	    -34.13931459	      9.29535809	      5.42738915	    -13.77284767	      6.45764763	      8.90069342
      3.22000000	      2.99073779	     -5.46317751	      3.24427002	     -0.20746590	      1.01719939	     -0.25038026	     -3.13408784	     10.24748419	      1.01627802	    -10.78803115	     10.43235123	     -5.04456387	     20.87861310	     -7.36705409	     -0.62216499	    -32.26750379	      8.81530087	      5.50848120	    -13.81456466	      6.39582037	      8.88871066
      3.23000000	      2.94353464	     -5.41318725	      3.27406501	     -0.20237784	      1.01667876	     -0.25075926	     -3.41402398	     10.19227041	      1.03858113	    -10.78913135	     10.73320493	     -5.02992544	     21.06975592	     -7.18720319	     -0.97552399	    -30.37941949	      8.27367306	      5.56034856	    -13.89948368	      6.31939234	      8.86567037
      3.24000000	      2.88897534	     -5.35727883	      3.30064388	     -0.19723825	      1.01612635	     -0.25115753	     -3.68215089	     10.12905372	      1.05024403	    -10.80237299	     11.03365223	     -5.02319817	     21.23357647	     -6.99153287	     -1.33253538	    -28.50149374	      7.68329661	      5.58892206	    -13.97647576	      6.23182376	      8.82595070
      3.25000000	      2.77430891	     -5.30295232	      3.32303439	     -0.19208018	      1.01544369	     -0.25159024	     -3.86181284	     10.06235603	      1.05477062	    -10.86156298	     11.33703091	     -5.03904836	     21.44004680	     -6.77673108	     -1.65652061	    -26.65591564	      7.06833444	      5.63577963	    -13.98450345	      6.14392872	      8.75340786
      3.26000000	      2.74117623	     -5.22495338	      3.32554557	     -0.18685350	      1.01487376	     -0.25202928	     -4.12270941	      9.97084162	      1.05600974	    -10.94760732	     11.69583712	     -5.04286065	     21.49036427	     -6.52966170	     -1.92950138	    -24.79038188	      6.53485909	      5.65376287	    -14.09529051	      6.02332374	      8.72253046
      3.27000000	      2.69789090	     -5.15314012	      3.32935076	     -0.18156653	      1.01426020	     -0.25250429	     -4.38139873	      9.88457264	      1.09418496	    -11.02220157	     12.02294327	     -5.03416307	     21.52514036	     -6.27282451	     -2.13662256	    -22.96400635	      6.05014190	      5.67135840	    -14.19204276	      5.91105272	      8.64672389
      3.28000000	      2.57676935	     -5.08688570	      3.31421627	     -0.17625626	      1.01347687	     -0.25300109	     -4.52716852	      9.79502036	      1.12237262	    -11.15321495	     12.36664548	     -5.04478894	     21.62576347	     -6.00722125	     -2.27966581	    -21.19799366	      5.64864246	      5.72274550	    -14.19851929	      5.80395691	      8.56090519
      3.29000000	      2.55095606	     -5.00997927	      3.27605536	     -0.17085490	      1.01281537	     -0.25347419	     -4.76578303	      9.69492999	      1.13860735	    -11.31717213	     12.72872088	     -5.01187774	     21.56420336	     -5.73757909	     -2.35834471	    -19.44179199	      5.42713411	      5.76791410	    -14.31943177	      5.67395152	      8.50443527
      3.30000000	      2.43289736	     -4.94771515	      3.22052661	     -0.16538531	      1.01195993	     -0.25397678	     -4.91150270	      9.60074000	      1.19713560	    -11.47428371	     13.10040553	     -4.99699587	     21.58788514	     -5.47216944	     -2.34774062	    -17.76547388	      5.29143953	      5.83980531	    -14.32314473	      5.56234094	      8.43177783
      3.31000000	      2.35933546	     -4.88209509	      3.13592493	     -0.15983140	      1.01113962	     -0.25447159	     -5.09286610	      9.49691645	      1.24825297	    -11.66593150	     13.48252465	     -4.94755862	     21.52048262	     -5.21452100	     -2.26782457	    -16.13958861	      5.29229170	      5.93478248	    -14.37882895	      5.44218193	      8.37795855
